<svg xmlns="http://www.w3.org/2000/svg" xmlns:xlink="http://www.w3.org/1999/xlink" viewBox="0 0 275 55"><defs><style>.a{fill:#fff;}.b{fill:url(#a);}</style><linearGradient id="a" x1="9.7189" y1="15.9736" x2="46.6102" y2="37.2728" gradientUnits="userSpaceOnUse"><stop offset="0" stop-color="#8002ef"/><stop offset="1" stop-color="#4ba9ea"/></linearGradient></defs><path class="a" d="M57.8035,32.0242a13.1354,13.1354,0,0,0,8.641,3.5831c3.32,0,5.0063-1.2119,5.0063-3.1088,0-2.2132-2.6873-3.0036-5.7964-3.6887-4.3735-.9485-9.59-2.1077-9.59-7.7985,0-4.1623,3.5831-7.7454,10.0114-7.7454a14.548,14.548,0,0,1,9.906,3.5831l-2.3185,3.8987a10.264,10.264,0,0,0-7.5348-3.0558c-2.898,0-4.7425,1.0538-4.7425,2.8453,0,1.95,2.5293,2.6345,5.5329,3.32,4.426.9484,9.8537,2.213,9.8537,8.22,0,4.479-3.7416,7.9041-10.5913,7.9041a15.4769,15.4769,0,0,1-10.9072-3.9522Z"/><path class="a" d="M79.5606,26.5967c0-7.2713,5.0058-13.331,13.0677-13.331,8.1671,0,13.12,6.06,13.12,13.331,0,7.3245-4.9531,13.3839-13.12,13.3839-8.0619,0-13.0677-6.0594-13.0677-13.3839m20.4443,0c0-4.4785-2.6346-8.4307-7.3766-8.4307-4.6895,0-7.3245,3.9522-7.3245,8.4307,0,4.5317,2.635,8.4834,7.3245,8.4834,4.742,0,7.3766-3.9517,7.3766-8.4834"/><path class="a" d="M127.296,23.4354c0-3.9522-2.0024-5.2693-5.1113-5.2693a8.3779,8.3779,0,0,0-6.5339,3.4248V39.3484h-5.5326v-25.45h5.5326v3.4774a12.0422,12.0422,0,0,1,8.9575-4.11c5.48,0,8.22,2.9508,8.22,8.1671V39.3484H127.296Z"/><path class="a" d="M154.7278,36.6084a10.7442,10.7442,0,0,1-8.22,3.3723c-4.1625,0-8.8523-2.7928-8.8523-8.4307,0-5.8488,4.69-8.2728,8.8523-8.2728,3.4251,0,6.3759,1.1066,8.22,3.2671V22.75c0-2.9509-2.4238-4.7425-5.9544-4.7425a10.421,10.421,0,0,0-7.5348,3.2143l-2.2658-3.8467a15.1356,15.1356,0,0,1,10.6964-4.11c5.6386,0,10.5912,2.3708,10.5912,9.221V39.3484h-5.5326Zm0-6.9026a7.4491,7.4491,0,0,0-6.06-2.635c-3.1086,0-5.4271,1.7917-5.4271,4.5843,0,2.74,2.3185,4.5317,5.4271,4.5317a7.4492,7.4492,0,0,0,6.06-2.6348Z"/><path class="a" d="M168.5334,33.4469V18.7456h-4.2155V13.898h4.2155V6.9427h5.5324V13.898h5.164v4.8476h-5.164V32.0768c0,1.7387.843,3.0033,2.424,3.0033a3.5715,3.5715,0,0,0,2.4765-.8956l1.3174,4.1629c-1.0012.9481-2.6346,1.6332-5.2166,1.6332-4.2682,0-6.5337-2.3185-6.5337-6.5337"/><path class="a" d="M187.22,44.7754a3.4473,3.4473,0,0,0,3.6359-2.2128l1.2646-2.898L181.6869,13.898h5.9014l7.43,19.0744,7.4295-19.0744h5.9544L196.1247,43.9323c-1.7389,4.321-4.795,5.6909-8.7467,5.7436a15.6689,15.6689,0,0,1-3.1093-.3685l.8431-4.9533a5.7836,5.7836,0,0,0,2.1077.4213"/><path class="a" d="M211.0687,49.0438V13.898h5.5329v3.4776a10.1549,10.1549,0,0,1,8.1671-4.11c6.5867,0,11.2762,4.9528,11.2762,13.3309s-4.69,13.384-11.2762,13.384a9.9923,9.9923,0,0,1-8.1671-4.1625V49.0438ZM223.1353,18.166a8.2579,8.2579,0,0,0-6.5337,3.4249V31.6552a8.4084,8.4084,0,0,0,6.5337,3.4249c4.3732,0,7.166-3.53,7.166-8.4835,0-4.9-2.7928-8.4306-7.166-8.4306"/><path class="a" d="M252.74,13.2657c7.64,0,12.5408,5.8487,12.5408,13.858v1.3176H245.6267a7.7088,7.7088,0,0,0,8.1149,7.0078,10.7717,10.7717,0,0,0,7.2186-2.7926l2.5292,3.6357a14.8347,14.8347,0,0,1-10.3276,3.6884c-7.6405,0-13.331-5.3218-13.331-13.3839,0-7.3768,5.3746-13.331,12.9095-13.331m-7.1663,11.276h14.3323a6.8071,6.8071,0,0,0-7.166-6.7445c-4.7421,0-6.9026,3.6359-7.1663,6.7445"/><path class="b" d="M28.1645,5.3241,9.7189,15.9736V37.2728l18.4456,10.65L46.61,37.2728V15.9736ZM41.3191,34.218,28.1645,41.8129,15.01,34.218v-15.19l13.1543-7.5949,13.1546,7.5949Z"/></svg>