<svg xmlns="http://www.w3.org/2000/svg" xmlns:xlink="http://www.w3.org/1999/xlink" viewBox="0 0 200 173"><defs><style>.a{fill:#fff;}.b{fill:url(#a);}</style><linearGradient id="a" x1="57.6745" y1="35.4822" x2="142.3245" y2="84.3549" gradientUnits="userSpaceOnUse"><stop offset="0" stop-color="#8002ef"/><stop offset="1" stop-color="#4ba9ea"/></linearGradient></defs><path class="a" d="M16.726,147.5768a10.668,10.668,0,0,0,7.0187,2.912c2.6986,0,4.0639-.992,4.0639-2.528,0-1.8027-2.1333-2.4427-4.7039-2.9973-3.552-.736-7.7973-1.6534-7.7973-6.304,0-3.3813,2.912-6.2933,8.1386-6.2933a11.8181,11.8181,0,0,1,8.0533,2.912l-1.888,3.2a8.3133,8.3133,0,0,0-6.1226-2.4853c-2.3574,0-3.8507.8533-3.8507,2.3146s2.048,2.1333,4.4907,2.6987c3.5946.768,8.0106,1.7919,8.0106,6.6772,0,3.6374-3.04,6.4-8.608,6.4a12.5713,12.5713,0,0,1-8.8639-3.2Z"/><path class="a" d="M34.4005,143.1924c0-5.9093,4.0746-10.8255,10.6666-10.8255s10.6666,4.9162,10.6666,10.8255-4.032,10.88-10.6666,10.88-10.6666-4.928-10.6666-10.88m16.6185,0c0-3.6363-2.1333-6.848-5.9946-6.848s-5.952,3.2-5.952,6.848,2.1334,6.9023,5.952,6.9023,5.9946-3.2117,5.9946-6.9023"/><path class="a" d="M73.1949,140.6226c0-3.2-1.6214-4.2666-4.1493-4.2666a6.783,6.783,0,0,0-5.3333,2.7829v14.4329h-4.48V132.8776h4.5013v2.8277a9.743,9.743,0,0,1,7.2746-3.3386c4.4586,0,6.688,2.3893,6.688,6.6335v14.561H73.1949Z"/><path class="a" d="M95.4879,151.3311a8.7037,8.7037,0,0,1-6.6773,2.7413c-3.3813,0-7.2-2.272-7.2-6.8479,0-4.7573,3.8186-6.73,7.2-6.73a8.5338,8.5338,0,0,1,6.6773,2.6549v-3.04c0-2.4-1.9626-3.8506-4.8319-3.8506a8.5383,8.5383,0,0,0-6.1333,2.6133l-1.8347-3.1253a12.2949,12.2949,0,0,1,8.6933-3.3376c4.5759,0,8.6079,1.919,8.6079,7.4666v13.7055H95.4879Zm0-5.6106a6.0691,6.0691,0,0,0-4.9279-2.1333c-2.5174,0-4.4053,1.4613-4.4053,3.7333S88.0426,151,90.56,151a6.0354,6.0354,0,0,0,4.9279-2.1333Z"/><path class="a" d="M106.7092,148.7611V136.8145h-3.424v-3.937h3.424v-5.6523H111.2v5.6523h4.2026v3.937H111.2v10.8373c0,1.4069.6933,2.4426,1.9733,2.4426a2.8776,2.8776,0,0,0,2.016-.736l1.0667,3.3909a5.9346,5.9346,0,0,1-4.2667,1.3227c-3.4559,0-5.28-1.8869-5.28-5.3109"/><path class="a" d="M121.8987,157.9662a2.8166,2.8166,0,0,0,2.9547-1.793l1.0666-2.3573-8.5333-20.9385h4.8l6.0373,15.5,6.0373-15.5h4.832L129.12,157.2825c-1.408,3.5093-3.8933,4.63-7.105,4.6731a12.6322,12.6322,0,0,1-2.528-.2987l.6837-4.032a4.6991,4.6991,0,0,0,1.728.3413"/><path class="a" d="M141.28,161.443V132.8779h4.4907v2.8266a8.2523,8.2523,0,0,1,6.6335-3.3375c5.3333,0,9.1743,4.02,9.1743,10.8255s-3.8186,10.88-9.1743,10.88a8.1223,8.1223,0,0,1-6.6335-3.3813V161.443Zm9.8016-25.0985a6.713,6.713,0,0,0-5.3333,2.784V147.31a6.861,6.861,0,0,0,5.3333,2.785c3.5519,0,5.8239-2.87,5.8239-6.9023s-2.272-6.848-5.8239-6.848"/><path class="a" d="M175.146,132.3663c6.208,0,10.1866,4.7467,10.1866,11.2533v1.0666h-16a6.2626,6.2626,0,0,0,6.592,5.696,8.7919,8.7919,0,0,0,5.8666-2.272l2.048,2.9536a12.0118,12.0118,0,0,1-8.384,2.9984,10.8586,10.8586,0,0,1-.3413-21.7065Zm-5.8133,9.1626h11.6479a5.5458,5.5458,0,0,0-5.6031-5.489q-.11,0-.2208.0064a5.6955,5.6955,0,0,0-5.824,5.4826"/><path class="b" d="M69.8145,77.348V42.49L100,25.06,130.1863,42.49V77.348L100,94.7665ZM100,11.0444,57.6749,35.4816V84.3559L100,108.7931l42.324-24.4372V35.4816Z"/></svg>