<svg xmlns="http://www.w3.org/2000/svg" xmlns:xlink="http://www.w3.org/1999/xlink" viewBox="0 0 200 173"><defs><style>.a{fill:none;}.b{clip-path:url(#a);}.c{fill:#fff;}</style><clipPath id="a"><rect class="a" x="14.6655" y="11.0446" width="170.6689" height="150.9109"/></clipPath></defs><g class="b"><g class="b"><path class="c" d="M16.721,147.61a10.6757,10.6757,0,0,0,7.0224,2.9115c2.6982,0,4.0685-.9849,4.0685-2.5261,0-1.7988-2.1838-2.441-4.7107-2.9978-3.5542-.7708-7.7932-1.7125-7.7932-6.3374,0-3.3832,2.9119-6.2951,8.1358-6.2951a11.8245,11.8245,0,0,1,8.05,2.9119L29.61,138.446a8.3416,8.3416,0,0,0-6.1237-2.4833c-2.3552,0-3.8541.8562-3.8541,2.312,0,1.5843,2.0556,2.1411,4.4967,2.6978,3.5968.7708,8.0076,1.7984,8.0076,6.68,0,3.64-3.0405,6.4229-8.6071,6.4229a12.5787,12.5787,0,0,1-8.8643-3.2114Z"/><path class="c" d="M34.4026,143.1992c0-5.9093,4.0681-10.8341,10.62-10.8341,6.6374,0,10.6624,4.9248,10.6624,10.8341,0,5.9524-4.025,10.8768-10.6624,10.8768-6.5519,0-10.62-4.9244-10.62-10.8768m16.6148,0c0-3.64-2.1411-6.8514-5.9948-6.8514-3.8113,0-5.9528,3.2114-5.9528,6.8514,0,3.6827,2.1415,6.8946,5.9528,6.8946,3.8537,0,5.9948-3.2119,5.9948-6.8946"/><path class="c" d="M73.1964,140.63c0-3.2114-1.6275-4.2822-4.154-4.2822a6.8082,6.8082,0,0,0-5.31,2.7833v14.4314H59.2363V132.88h4.4963v2.826a9.7842,9.7842,0,0,1,7.28-3.34c4.4536,0,6.68,2.3979,6.68,6.6369v14.56H73.1964Z"/><path class="c" d="M95.49,151.3357a8.7313,8.7313,0,0,1-6.68,2.74c-3.3828,0-7.1941-2.27-7.1941-6.8514,0-4.7535,3.8113-6.7232,7.1941-6.7232a8.5492,8.5492,0,0,1,6.68,2.6551v-3.0833c0-2.3979-1.9694-3.854-4.839-3.854a8.4694,8.4694,0,0,0-6.1233,2.6119l-1.8416-3.1259a12.2994,12.2994,0,0,1,8.693-3.34c4.5822,0,8.6071,1.927,8.6071,7.4936v13.7033H95.49Zm0-5.61a6.0546,6.0546,0,0,0-4.9244-2.1411c-2.5265,0-4.41,1.4558-4.41,3.7255,0,2.2265,1.8839,3.6827,4.41,3.6827a6.0546,6.0546,0,0,0,4.9244-2.1411Z"/><path class="c" d="M106.7092,148.7664V136.8188h-3.4255v-3.94h3.4255v-5.6525h4.4958v5.6525h4.1972v3.94H111.205v10.8341c0,1.413.6854,2.4406,1.97,2.4406a2.9053,2.9053,0,0,0,2.0129-.7276l1.07,3.3832a5.9327,5.9327,0,0,1-4.2391,1.3271c-3.4686,0-5.31-1.8843-5.31-5.31"/><path class="c" d="M121.8952,157.973a2.8023,2.8023,0,0,0,2.9551-1.7984l1.0276-2.3552-8.479-20.94h4.7958l6.0383,15.5013,6.0379-15.5013h4.839l-9.9774,24.4084c-1.4135,3.5118-3.8968,4.6248-7.1087,4.668a12.716,12.716,0,0,1-2.5265-.3l.6849-4.0254a4.7063,4.7063,0,0,0,1.713.3426"/><path class="c" d="M141.2768,161.4419V132.88h4.4967v2.826a8.2525,8.2525,0,0,1,6.6374-3.34c5.3529,0,9.1643,4.0258,9.1643,10.8341s-3.8114,10.8768-9.1643,10.8768a8.1207,8.1207,0,0,1-6.6374-3.3827v10.7486Zm9.8065-25.0941a6.7107,6.7107,0,0,0-5.31,2.7833v8.179a6.8335,6.8335,0,0,0,5.31,2.7837c3.5541,0,5.8238-2.8692,5.8238-6.8946,0-3.9822-2.27-6.8514-5.8238-6.8514"/><path class="c" d="M175.1429,132.3655c6.2092,0,10.1915,4.753,10.1915,11.2618v1.0712H169.3618a6.2647,6.2647,0,0,0,6.5946,5.6948,8.754,8.754,0,0,0,5.8666-2.2693l2.0556,2.9546a12.056,12.056,0,0,1-8.393,2.9974c-6.21,0-10.8337-4.3249-10.8337-10.8768,0-5.9948,4.3677-10.8337,10.491-10.8337m-5.8238,9.1639h11.6476a5.5324,5.5324,0,0,0-5.8238-5.4812,5.7051,5.7051,0,0,0-5.8238,5.4812"/><path class="c" d="M100,11.0446,57.6739,35.4819V84.3555L100,108.7924l42.326-24.4369V35.4819Zm30.1851,66.3015L100,94.7732,69.8153,77.3461V42.4913L100,25.0638l30.1851,17.4275V77.3461Z"/></g></g></svg>