<svg xmlns="http://www.w3.org/2000/svg" xmlns:xlink="http://www.w3.org/1999/xlink" viewBox="0 0 200 173"><defs><style>.a{fill:none;}.b{clip-path:url(#a);}.c{fill:#1b1c30;}</style><clipPath id="a"><rect class="a" x="14.6655" y="11.0446" width="170.6689" height="150.9109"/></clipPath></defs><g class="b"><g class="b"><path class="c" d="M16.721,147.61a10.6745,10.6745,0,0,0,7.0224,2.9119c2.6982,0,4.0685-.9849,4.0685-2.5265,0-1.7985-2.1838-2.4411-4.7107-2.9978-3.5542-.77-7.7932-1.7126-7.7932-6.3374,0-3.3828,2.9119-6.2947,8.1358-6.2947a11.8221,11.8221,0,0,1,8.05,2.9119L29.61,138.4462a8.34,8.34,0,0,0-6.1237-2.4834c-2.3552,0-3.8541.8563-3.8541,2.312,0,1.5844,2.0556,2.1411,4.4967,2.6979,3.5968.7708,8.0076,1.7984,8.0076,6.68,0,3.64-3.0405,6.4229-8.6071,6.4229a12.58,12.58,0,0,1-8.8643-3.2115Z"/><path class="c" d="M34.4026,143.1993c0-5.9092,4.0681-10.8341,10.62-10.8341,6.6374,0,10.6624,4.9249,10.6624,10.8341,0,5.9525-4.025,10.8769-10.6624,10.8769-6.5519,0-10.62-4.9244-10.62-10.8769m16.6148,0c0-3.64-2.1411-6.8514-5.9948-6.8514-3.8113,0-5.9528,3.2114-5.9528,6.8514,0,3.6828,2.1415,6.8946,5.9528,6.8946,3.8537,0,5.9948-3.2118,5.9948-6.8946"/><path class="c" d="M73.1964,140.63c0-3.2115-1.6275-4.2822-4.154-4.2822a6.8079,6.8079,0,0,0-5.31,2.7833v14.4313H59.2363V132.8792h4.4963v2.8265a9.7843,9.7843,0,0,1,7.28-3.34c4.4536,0,6.68,2.3979,6.68,6.6369v14.56H73.1964Z"/><path class="c" d="M95.49,151.3354a8.7316,8.7316,0,0,1-6.68,2.741c-3.3828,0-7.1941-2.27-7.1941-6.8515,0-4.7534,3.8113-6.7232,7.1941-6.7232a8.5492,8.5492,0,0,1,6.68,2.6551v-3.0837c0-2.3974-1.9694-3.8536-4.839-3.8536a8.47,8.47,0,0,0-6.1233,2.612l-1.8416-3.126a12.3,12.3,0,0,1,8.693-3.34c4.5822,0,8.6071,1.9271,8.6071,7.4937v13.7033H95.49Zm0-5.6094a6.0549,6.0549,0,0,0-4.9244-2.1415c-2.5265,0-4.41,1.4562-4.41,3.7259,0,2.2266,1.8839,3.6827,4.41,3.6827a6.0537,6.0537,0,0,0,4.9244-2.1415Z"/><path class="c" d="M106.7092,148.7661V136.819h-3.4255v-3.94h3.4255v-5.652h4.4958v5.652h4.1972v3.94H111.205v10.8341c0,1.4126.6854,2.4406,1.97,2.4406a2.9048,2.9048,0,0,0,2.0129-.7277l1.07,3.3828a5.9307,5.9307,0,0,1-4.2391,1.3276c-3.4686,0-5.31-1.8848-5.31-5.31"/><path class="c" d="M121.8952,157.9727a2.802,2.802,0,0,0,2.9551-1.798l1.0276-2.3556-8.479-20.94h4.7958l6.0383,15.5017,6.0379-15.5017h4.839l-9.9774,24.4088c-1.4135,3.5118-3.8968,4.6249-7.1087,4.668a12.716,12.716,0,0,1-2.5265-.3l.6849-4.0254a4.7058,4.7058,0,0,0,1.713.3422"/><path class="c" d="M141.2768,161.4416V132.8792h4.4967v2.8265a8.2528,8.2528,0,0,1,6.6374-3.3405c5.3529,0,9.1643,4.0254,9.1643,10.8341s-3.8114,10.8769-9.1643,10.8769a8.1208,8.1208,0,0,1-6.6374-3.3828v10.7482Zm9.8065-25.0937a6.7109,6.7109,0,0,0-5.31,2.7833v8.179a6.8335,6.8335,0,0,0,5.31,2.7837c3.5541,0,5.8238-2.8692,5.8238-6.8946,0-3.9826-2.27-6.8514-5.8238-6.8514"/><path class="c" d="M175.1429,132.3656c6.2092,0,10.1915,4.7531,10.1915,11.2618v1.0708H169.3618a6.2646,6.2646,0,0,0,6.5946,5.6952,8.7519,8.7519,0,0,0,5.8666-2.27l2.0556,2.955a12.0579,12.0579,0,0,1-8.393,2.9974c-6.21,0-10.8337-4.3249-10.8337-10.8768,0-5.9952,4.3677-10.8337,10.491-10.8337m-5.8238,9.1634h11.6476a5.5324,5.5324,0,0,0-5.8238-5.4811,5.7051,5.7051,0,0,0-5.8238,5.4811"/><path class="c" d="M100,11.0447,57.6739,35.4815V84.3556L100,108.792l42.326-24.4364V35.4815Zm30.1851,66.3015L100,94.7732,69.8153,77.3462V42.4909L100,25.0639l30.1851,17.427V77.3462Z"/></g></g></svg>